<svg xmlns="http://www.w3.org/2000/svg" width="11.588" height="18.541" viewBox="0 0 11.588 18.541">
  <path id="Icon_metro-location" data-name="Icon metro-location" d="M14.149,1.928A5.794,5.794,0,0,0,8.355,7.722c0,5.794,5.794,12.747,5.794,12.747s5.794-6.953,5.794-12.747a5.794,5.794,0,0,0-5.794-5.794Zm0,9.343A3.549,3.549,0,1,1,17.7,7.722,3.549,3.549,0,0,1,14.149,11.271ZM11.9,7.722a2.245,2.245,0,1,1,2.245,2.245A2.245,2.245,0,0,1,11.9,7.722Z" transform="translate(-8.355 -1.928)" fill="#fff"/>
</svg>
