<svg xmlns="http://www.w3.org/2000/svg" width="245.62" height="69.675" viewBox="0 0 245.62 69.675">
  <path id="Instagram-Wordmark-Black-Logo.wine" d="M12.647.242C7.618,2.346,2.088,8.285.343,15.755-1.872,25.212,7.335,29.205,8.087,27.9c.885-1.545-1.655-2.064-2.174-6.967C5.246,14.594,8.187,7.51,11.9,4.4c.692-.568.659.234.659,1.712,0,2.666-.149,26.517-.149,31.5,0,6.741-.276,8.863-.786,10.959-.5,2.131-1.312,3.569-.7,4.128.692.618,3.632-.853,5.337-3.232,2.039-2.85,2.758-6.275,2.891-9.993.15-4.477.142-11.595.15-15.647,0-3.726.058-14.62-.058-21.178-.034-1.6-4.494-3.284-6.592-2.406M244.51,35.629c-.719,0-1.06.752-1.336,2.014-.952,4.4-1.954,5.4-3.25,5.4-1.444,0-2.74-2.179-3.082-6.541a147.01,147.01,0,0,1,.117-16.024c.067-1.287-.285-2.563-3.744-3.825-1.494-.535-3.659-1.337-4.735,1.269a64.826,64.826,0,0,0-4.521,15.556c-.007.124-.158.142-.184-.142a122.714,122.714,0,0,1-.625-12.6,3.787,3.787,0,0,0-1.88-3.6c-1.011-.634-4.086-1.77-5.2-.425-.952,1.1-2.062,4.061-3.223,7.569-.937,2.857-1.588,4.8-1.588,4.8s.007-7.7.025-10.628a1.507,1.507,0,0,0-.977-1.537,20.447,20.447,0,0,0-3.91-.793c-1.06,0-1.312.593-1.312,1.453,0,.108-.175,10.132-.175,17.142V35.7c-.577,3.225-2.48,7.6-4.544,7.6s-3.041-1.83-3.041-10.184c0-4.871.151-6.992.218-10.518.041-2.03.124-3.592.117-3.951-.018-1.078-1.9-1.63-2.767-1.83a8.346,8.346,0,0,0-2.237-.251,1.4,1.4,0,0,0-1.429,1.372V19.1a8,8,0,0,0-3.994-3.232c-3.124-.927-6.392-.1-8.856,3.34a20.3,20.3,0,0,0-3.592,10.294,30.211,30.211,0,0,0,.375,9.348C174.427,42,173.073,43.3,171.6,43.3c-2.156,0-3.708-3.51-3.533-9.584.126-3.992.919-6.79,1.795-10.851a3.523,3.523,0,0,0-.692-3.509c-.694-.786-2.181-1.195-4.31-.7-1.514.359-3.693.743-5.674,1.037a12.33,12.33,0,0,0,.218-1.32c.51-4.42-4.294-4.061-5.824-2.648a5.413,5.413,0,0,0-1.779,3.625,4.273,4.273,0,0,0,1.938,4.178,42.965,42.965,0,0,1-4.544,11.3,47.771,47.771,0,0,1-2.832,4.445c-.009-.51-.009-1.029-.009-1.537-.018-7.311.074-13.066.117-15.138.042-2.03.126-3.551.126-3.91-.018-.786-.476-1.094-1.446-1.462a10.452,10.452,0,0,0-2.907-.66c-1.312-.1-2.114.6-2.089,1.429V19.1a8.083,8.083,0,0,0-3.985-3.232c-3.133-.927-6.4-.1-8.863,3.34a22.2,22.2,0,0,0-3.6,10.251,31.425,31.425,0,0,0,.193,8.807c-.5,2.455-1.929,5.029-3.549,5.029-2.064,0-3.243-1.83-3.243-10.184,0-4.871.151-6.992.227-10.518.041-2.03.117-3.592.108-3.951-.009-1.078-1.887-1.63-2.765-1.83a8.367,8.367,0,0,0-2.307-.251A1.491,1.491,0,0,0,111,17.885V19.1a8.061,8.061,0,0,0-3.994-3.232c-3.124-.927-6.366-.083-8.847,3.34-1.62,2.232-2.931,4.712-3.608,10.21a36.85,36.85,0,0,0-.267,4.461c-.644,3.942-3.492,8.488-5.815,8.488-1.37,0-2.673-2.641-2.673-8.279,0-7.5.467-18.2.551-19.231,0,0,2.94-.051,3.517-.058,1.462-.009,2.8.025,4.746-.076.986-.05,1.929-3.567.91-4.009a35.114,35.114,0,0,0-4.98-.393c-1.085-.025-4.086-.25-4.086-.25s.269-7.093.328-7.837c.05-.636-.752-.952-1.22-1.145A16.2,16.2,0,0,0,82.238.141C80.576-.2,79.832.134,79.691,1.527c-.218,2.115-.335,8.315-.335,8.315-1.22,0-5.355-.244-6.567-.244-1.126,0-2.347,4.847-.784,4.905,1.8.067,4.912.135,6.983.191,0,0-.092,10.871-.092,14.22v1.036A16.455,16.455,0,0,1,73.75,39.1c.86-3.935-.894-6.884-4.068-9.373-1.17-.928-3.475-2.675-6.057-4.571a15.7,15.7,0,0,0,2.823-4.436c.937-2.1.979-4.51-1.328-5.038-3.809-.876-6.943,1.922-7.886,4.912A5.685,5.685,0,0,0,58.319,26.4l.326.4c-.851,1.653-2.038,3.884-3.032,5.613-2.781,4.8-4.879,8.6-6.458,8.6-1.269,0-1.253-3.852-1.253-7.461,0-3.108.234-7.794.418-12.639.058-1.6-.743-2.515-2.087-3.342a9.4,9.4,0,0,0-3.569-1.487c-1.5,0-5.865.2-9.982,12.1-.519,1.5-1.538,4.236-1.538,4.236L31.236,18.1a.994.994,0,0,0-.584-.878,10.236,10.236,0,0,0-4.194-1.143c-.795,0-1.188.368-1.188,1.094l-.133,22.389a33.118,33.118,0,0,0,.209,4.562,4.838,4.838,0,0,0,.777,2A2.3,2.3,0,0,0,27.485,47c.593.126,3.859.535,4.027-.71a46.7,46.7,0,0,1,1.929-9.146c2.673-9.391,6.15-13.969,7.787-15.6.292-.283.618-.3.6.168-.074,2.062-.317,7.2-.483,11.57-.442,11.7,1.678,13.868,4.728,13.868,2.322,0,5.6-2.314,9.115-8.161,2.2-3.652,4.319-7.219,5.856-9.8,1.053.984,2.255,2.046,3.45,3.183,2.783,2.631,3.693,5.137,3.084,7.511-.46,1.82-2.206,3.691-5.305,1.871-.9-.527-1.287-.936-2.2-1.538a1.556,1.556,0,0,0-1.68-.083A5.983,5.983,0,0,0,56.181,43.5c-.359,1.345.986,2.046,2.381,2.664a18.085,18.085,0,0,0,5.413,1.078c6.408.218,11.538-3.091,15.1-11.612.644,7.36,3.358,11.529,8.079,11.529,3.165,0,6.332-4.086,7.72-8.1a14.165,14.165,0,0,0,1.745,4.27c3.643,5.764,10.709,4.528,14.252-.368a9.231,9.231,0,0,0,1.271-2.064,6.687,6.687,0,0,0,6.374,6.249c2.4,0,4.854-1.135,6.581-5.029a11.163,11.163,0,0,0,.678,1.213c3.634,5.764,10.7,4.528,14.252-.368.159-.242.31-.442.434-.635l.11,3.041s-2.03,1.855-3.275,3c-5.472,5.022-9.633,8.831-9.941,13.259-.384,5.656,4.193,7.753,7.668,8.028a9.755,9.755,0,0,0,8.771-4.594c1.7-2.507,2.825-7.895,2.742-13.225-.034-2.138-.085-4.845-.135-7.76a60.16,60.16,0,0,0,6.091-8.353,62.2,62.2,0,0,0,5.688-12.2s2.031.018,4.187-.117c.694-.042.894.1.759.6-.151.609-2.723,10.543-.375,17.16,1.613,4.526,5.229,5.989,7.385,5.989,2.514,0,4.921-1.9,6.206-4.728.159.31.319.618.5.9,3.634,5.764,10.676,4.519,14.252-.368a14.233,14.233,0,0,0,1.262-2.064,6.936,6.936,0,0,0,6.624,6.266c2.23,0,4.335-.91,6.049-4.955A17.537,17.537,0,0,0,205.4,45.9c.108.285.743.636,1.195.811a9.117,9.117,0,0,0,4.87.234c.535-.108.952-.526,1-1.629.149-2.891.057-7.744.935-11.361,1.478-6.049,2.848-8.4,3.5-9.557.361-.653.777-.761.786-.076.025,1.395.1,5.489.676,11,.411,4.043.97,6.44,1.4,7.2a3.956,3.956,0,0,0,3.969,2.264c.786,0,2.423-.218,2.28-1.6a43.884,43.884,0,0,1,1.5-10.784,52.933,52.933,0,0,1,3.1-8.706c.218-.476.31-.108.31-.034-.126,2.682-.393,11.462.692,16.257,1.489,6.509,5.773,7.235,7.268,7.235,3.183,0,5.8-2.423,6.675-8.8.218-1.538-.1-2.724-1.044-2.724M110.934,31.687a20.756,20.756,0,0,1-1.887,8.246c-1.922,3.717-5.705,4.887-7.369-.467-1.211-3.868-.8-9.148-.292-12,.735-4.227,2.6-7.217,5.505-6.943,2.974.294,4.427,4.128,4.043,11.163m29.148.05a22.9,22.9,0,0,1-1.9,8.2c-1.862,3.742-5.757,4.912-7.369-.467a26.926,26.926,0,0,1-.292-11.43c.712-3.893,2.423-7.511,5.507-7.511,3,0,4.477,3.293,4.05,11.212m.761,21.754c-.042,5.824-.952,10.92-2.908,12.407-2.79,2.1-6.541.517-5.764-3.726.685-3.76,3.935-7.594,8.681-12.282,0,0,.016,1.069-.009,3.6M191.17,31.77a20.678,20.678,0,0,1-1.9,8.162c-1.864,3.742-5.723,4.9-7.369-.467-.894-2.933-.936-7.829-.292-11.913.651-4.162,2.482-7.3,5.505-7.028,2.99.285,4.387,4.128,4.061,11.246" fill="#1e0000"/>
</svg>
