<svg id="logoRD" xmlns="http://www.w3.org/2000/svg" width="76" height="76" viewBox="0 0 76 76">
  <g id="Path_4" data-name="Path 4" fill="none">
    <path d="M0,0H76V76H0Z" stroke="none"/>
    <path d="M 1 1 L 1 75 L 75 75 L 75 1 L 1 1 M 0 0 L 76 0 L 76 76 L 0 76 L 0 0 Z" stroke="none" fill="#ebb29e"/>
  </g>
  <path id="Path_2" data-name="Path 2" d="M208.207-1166.382c0,.362.194.405,1.773.469l1.748.064v33.9l-1.821.106c-1.408.085-1.821.171-1.821.426,0,.277,1.287.32,10.078.32,10.806,0,12.749-.128,16.634-1.087,8.183-2.025,12.263-6.225,13.234-13.665.9-6.865-.631-12.684-4.225-16.031-1.87-1.748-5.682-3.432-9.4-4.157-2.817-.554-7.455-.746-17.265-.767C208.425-1166.808,208.207-1166.808,208.207-1166.382Zm21.442,1.066a6.962,6.962,0,0,1,4.3,2.814c1.87,2.878,2.428,5.948,2.428,13.281,0,6.907-.534,10.233-2.113,12.962-1.627,2.857-4.832,4.392-9.228,4.413h-1.773v-16.905c0-9.316.073-16.99.194-17.076C223.748-1166.126,228-1165.764,229.649-1165.316Z" transform="translate(-202.085 1172.089)" fill="#ebb29e"/>
  <path id="Path_3" data-name="Path 3" d="M466.97-829.445a11.654,11.654,0,0,1-1.433,1.684,19.858,19.858,0,0,1-8.281,4.775l-1.336.362L455.8-808.7l-.121,13.942-1.87.064c-1.7.064-1.894.107-1.894.469,0,.426.219.426,9.349.426,9.106,0,9.349,0,9.349-.426,0-.362-.194-.405-1.748-.469l-1.773-.064-.073-8.591-.049-8.57h2.186c2.647,0,3.424.277,4.177,1.556.486.81.559,1.322.7,5.905a40.031,40.031,0,0,0,.534,6.2c.8,2.814,2.453,4.221,5.561,4.669a24.207,24.207,0,0,0,7.066-.213,4.877,4.877,0,0,0,3.3-3.3c.753-2.11.923-3.517.437-3.517-.219,0-.437.277-.534.682-.559,2.516-1.36,3.581-2.647,3.581-1.554,0-1.651-.3-1.87-5.479a49.357,49.357,0,0,0-.413-5.436,6.38,6.38,0,0,0-2.428-3.3,13.09,13.09,0,0,0-4.93-1.556c-1.068,0-.121-.384,1.821-.725,3.667-.64,6.047-2.2,6.824-4.434.85-2.537.68-6.033-.389-7.866-1.676-2.9-4.565-3.9-12.239-4.242C468.33-829.658,466.97-829.658,466.97-829.445Zm5.245,1.215c2.5.917,3.133,2.3,3.133,6.928,0,3.752-.389,5.393-1.627,6.715-1.141,1.194-2.356,1.641-4.662,1.663l-1.967.043-.073-7.675c-.024-4.221,0-7.8.073-7.973C467.262-828.934,470.9-828.72,472.216-828.23Z" transform="translate(-422.724 863.036)" fill="#ebb29e"/>
</svg>
