<svg xmlns="http://www.w3.org/2000/svg" width="138" height="138" viewBox="0 0 138 138">
  <g id="logo_footer" data-name="logo footer" transform="translate(-140 -6478)">
    <g id="Path_5" data-name="Path 5" transform="translate(140 6478)" fill="none">
      <path d="M0,0H138V138H0Z" stroke="none"/>
      <path d="M 1 1 L 1 137 L 137 137 L 137 1 L 1 1 M 0 0 L 138 0 L 138 138 L 0 138 L 0 0 Z" stroke="none" fill="#1e0000"/>
    </g>
    <path id="Path_6" data-name="Path 6" d="M208.306-1166.034c0,.658.353.736,3.219.852l3.175.116v61.548l-3.307.193c-2.557.155-3.307.31-3.307.774,0,.5,2.337.581,18.3.581,19.622,0,23.149-.232,30.2-1.974,14.859-3.677,22.267-11.3,24.031-24.812,1.631-12.465-1.146-23.032-7.672-29.109-3.4-3.174-10.318-6.232-17.064-7.548-5.115-1.006-13.537-1.355-31.35-1.394C208.7-1166.808,208.306-1166.808,208.306-1166.034Zm38.934,1.936c3.7,1.007,6.173,2.632,7.8,5.11,3.4,5.226,4.409,10.8,4.409,24.116,0,12.542-.97,18.581-3.836,23.535-2.954,5.187-8.775,7.974-16.755,8.013h-3.219v-30.7c0-16.916.132-30.851.353-31.006C236.525-1165.57,244.242-1164.912,247.24-1164.1Z" transform="translate(-57.19 7654.396)" fill="#1e0000"/>
    <path id="Path_7" data-name="Path 7" d="M479.253-829.319a21.149,21.149,0,0,1-2.6,3.058,36.057,36.057,0,0,1-15.036,8.671l-2.425.658-.22,25.277-.22,25.316-3.4.116c-3.087.116-3.439.194-3.439.852,0,.774.4.774,16.976.774,16.535,0,16.976,0,16.976-.774,0-.658-.353-.736-3.175-.852l-3.219-.116-.132-15.6-.088-15.561h3.969c4.806,0,6.217.5,7.584,2.826.882,1.471,1.014,2.4,1.279,10.723.22,5.613.573,9.91.97,11.264,1.455,5.11,4.453,7.664,10.1,8.477a43.954,43.954,0,0,0,12.831-.387,8.857,8.857,0,0,0,6-6c1.367-3.832,1.675-6.387.794-6.387-.4,0-.794.5-.97,1.239-1.014,4.568-2.469,6.5-4.806,6.5-2.822,0-3-.542-3.4-9.948a89.62,89.62,0,0,0-.75-9.871,11.583,11.583,0,0,0-4.409-6,23.767,23.767,0,0,0-8.951-2.826c-1.94,0-.22-.7,3.307-1.316,6.658-1.161,10.979-3.987,12.39-8.052,1.543-4.606,1.235-10.955-.705-14.284-3.043-5.265-8.29-7.084-22.223-7.7C481.722-829.706,479.253-829.706,479.253-829.319Zm9.524,2.207c4.542,1.664,5.688,4.181,5.688,12.581,0,6.813-.706,9.793-2.954,12.193-2.072,2.168-4.277,2.981-8.466,3.019l-3.572.078-.132-13.936c-.044-7.665,0-14.168.132-14.477C479.782-828.39,486.4-828,488.777-827.112Z" transform="translate(-258.911 7368.313)" fill="#1e0000"/>
  </g>
</svg>
